<?xml version="1.0" encoding="UTF-8"?>
<svg xmlns="http://www.w3.org/2000/svg" xmlns:xlink="http://www.w3.org/1999/xlink" width="32px" height="32px" viewBox="0 0 32 32" version="1.1">
<g id="surface1">
<path style=" stroke:none;fill-rule:nonzero;fill:rgb(32.549021%,69.803923%,25.882354%);fill-opacity:1;" d="M 25.1875 13.3125 C 25.503906 13.308594 25.820312 13.308594 26.136719 13.304688 C 26.242188 13.304688 26.351562 13.304688 26.457031 13.304688 C 26.613281 13.300781 26.765625 13.300781 26.921875 13.300781 C 26.96875 13.300781 27.015625 13.300781 27.066406 13.296875 C 27.511719 13.296875 27.511719 13.296875 27.6875 13.4375 C 27.785156 13.65625 27.761719 13.914062 27.761719 14.152344 C 27.761719 14.195312 27.761719 14.242188 27.761719 14.289062 C 27.761719 14.382812 27.761719 14.476562 27.761719 14.570312 C 27.761719 14.714844 27.761719 14.859375 27.765625 15 C 27.765625 15.09375 27.765625 15.183594 27.765625 15.277344 C 27.765625 15.320312 27.765625 15.363281 27.765625 15.40625 C 27.765625 15.652344 27.734375 15.839844 27.625 16.0625 C 27.5625 16.0625 27.5 16.0625 27.4375 16.0625 C 27.4375 16.105469 27.4375 16.144531 27.4375 16.1875 C 26.507812 16.21875 26.507812 16.21875 25.5625 16.25 C 26.738281 16.28125 26.738281 16.28125 27.9375 16.3125 C 27.9375 16.269531 27.9375 16.230469 27.9375 16.1875 C 27.980469 16.1875 28.019531 16.1875 28.0625 16.1875 C 28.0625 16.117188 28.0625 16.117188 28.0625 16.046875 C 28.058594 15.832031 28.058594 15.621094 28.058594 15.410156 C 28.058594 15.335938 28.058594 15.261719 28.058594 15.1875 C 28.058594 15.082031 28.058594 15.082031 28.054688 14.972656 C 28.054688 14.875 28.054688 14.875 28.054688 14.777344 C 28.0625 14.625 28.0625 14.625 28.125 14.5625 C 28.261719 14.558594 28.398438 14.558594 28.535156 14.558594 C 28.648438 14.558594 28.648438 14.558594 28.761719 14.558594 C 28.820312 14.5625 28.878906 14.5625 28.9375 14.5625 C 28.9375 14.898438 28.941406 15.234375 28.941406 15.570312 C 28.941406 15.683594 28.941406 15.800781 28.941406 15.914062 C 28.941406 16.078125 28.941406 16.242188 28.945312 16.40625 C 28.945312 16.457031 28.945312 16.507812 28.945312 16.5625 C 28.945312 16.921875 28.945312 16.921875 28.875 17.0625 C 28.855469 17.207031 28.84375 17.355469 28.828125 17.5 C 28.8125 17.625 28.8125 17.625 28.75 17.6875 C 28.710938 17.875 28.675781 18.066406 28.640625 18.257812 C 28.589844 18.546875 28.496094 18.792969 28.375 19.0625 C 28.339844 19.167969 28.308594 19.273438 28.277344 19.378906 C 28.210938 19.609375 28.140625 19.835938 28.0625 20.0625 C 28.019531 20.0625 27.980469 20.0625 27.9375 20.0625 C 27.933594 20.101562 27.925781 20.140625 27.921875 20.183594 C 27.804688 20.667969 27.539062 21.117188 27.3125 21.5625 C 27.269531 21.5625 27.230469 21.5625 27.1875 21.5625 C 27.1875 21.644531 27.1875 21.726562 27.1875 21.8125 C 27.144531 21.8125 27.105469 21.8125 27.0625 21.8125 C 27.054688 21.851562 27.042969 21.890625 27.035156 21.929688 C 27 22.0625 27 22.0625 26.9375 22.1875 C 26.894531 22.1875 26.855469 22.1875 26.8125 22.1875 C 26.804688 22.226562 26.792969 22.265625 26.785156 22.304688 C 26.75 22.4375 26.75 22.4375 26.6875 22.5625 C 26.644531 22.5625 26.605469 22.5625 26.5625 22.5625 C 26.554688 22.601562 26.542969 22.640625 26.535156 22.679688 C 26.5 22.8125 26.5 22.8125 26.4375 22.9375 C 26.394531 22.9375 26.355469 22.9375 26.3125 22.9375 C 26.3125 22.980469 26.3125 23.019531 26.3125 23.0625 C 26.269531 23.0625 26.230469 23.0625 26.1875 23.0625 C 26.179688 23.101562 26.167969 23.140625 26.160156 23.179688 C 26.125 23.3125 26.125 23.3125 26.0625 23.4375 C 26.019531 23.4375 25.980469 23.4375 25.9375 23.4375 C 25.9375 23.480469 25.9375 23.519531 25.9375 23.5625 C 25.894531 23.5625 25.855469 23.5625 25.8125 23.5625 C 25.8125 23.605469 25.8125 23.644531 25.8125 23.6875 C 25.769531 23.6875 25.730469 23.6875 25.6875 23.6875 C 25.6875 23.730469 25.6875 23.769531 25.6875 23.8125 C 25.644531 23.8125 25.605469 23.8125 25.5625 23.8125 C 25.546875 23.859375 25.53125 23.902344 25.515625 23.949219 C 25.335938 24.347656 24.914062 24.691406 24.5625 24.9375 C 24.519531 24.9375 24.480469 24.9375 24.4375 24.9375 C 24.4375 24.980469 24.4375 25.019531 24.4375 25.0625 C 24.394531 25.0625 24.355469 25.0625 24.3125 25.0625 C 24.3125 25.105469 24.3125 25.144531 24.3125 25.1875 C 24.269531 25.1875 24.230469 25.1875 24.1875 25.1875 C 24.1875 25.230469 24.1875 25.269531 24.1875 25.3125 C 24.144531 25.3125 24.105469 25.3125 24.0625 25.3125 C 24.0625 25.355469 24.0625 25.394531 24.0625 25.4375 C 23.9375 25.480469 23.816406 25.519531 23.6875 25.5625 C 23.6875 25.605469 23.6875 25.644531 23.6875 25.6875 C 23.644531 25.6875 23.605469 25.6875 23.5625 25.6875 C 23.5625 25.730469 23.5625 25.769531 23.5625 25.8125 C 23.4375 25.855469 23.316406 25.894531 23.1875 25.9375 C 23.1875 25.980469 23.1875 26.019531 23.1875 26.0625 C 23.0625 26.105469 22.941406 26.144531 22.8125 26.1875 C 22.8125 26.230469 22.8125 26.269531 22.8125 26.3125 C 22.730469 26.3125 22.648438 26.3125 22.5625 26.3125 C 22.5625 26.355469 22.5625 26.394531 22.5625 26.4375 C 22.375 26.5625 22.375 26.5625 22.1875 26.5625 C 22.1875 26.605469 22.1875 26.644531 22.1875 26.6875 C 22.105469 26.6875 22.023438 26.6875 21.9375 26.6875 C 21.9375 26.730469 21.9375 26.769531 21.9375 26.8125 C 21.855469 26.8125 21.773438 26.8125 21.6875 26.8125 C 21.6875 26.855469 21.6875 26.894531 21.6875 26.9375 C 21.605469 26.9375 21.523438 26.9375 21.4375 26.9375 C 21.4375 26.980469 21.4375 27.019531 21.4375 27.0625 C 21.339844 27.105469 21.238281 27.144531 21.140625 27.1875 C 21.085938 27.210938 21.03125 27.234375 20.972656 27.257812 C 20.8125 27.3125 20.8125 27.3125 20.5625 27.3125 C 20.5625 27.355469 20.5625 27.394531 20.5625 27.4375 C 20.4375 27.4375 20.316406 27.4375 20.1875 27.4375 C 20.1875 27.480469 20.1875 27.519531 20.1875 27.5625 C 20.113281 27.578125 20.113281 27.578125 20.039062 27.597656 C 19.945312 27.621094 19.945312 27.621094 19.84375 27.644531 C 19.78125 27.660156 19.714844 27.675781 19.648438 27.691406 C 19.492188 27.734375 19.351562 27.78125 19.199219 27.84375 C 18.921875 27.953125 18.640625 27.996094 18.347656 28.039062 C 18.023438 28.058594 18.023438 28.058594 17.75 28.1875 C 17.640625 28.195312 17.535156 28.195312 17.425781 28.195312 C 17.355469 28.195312 17.285156 28.199219 17.214844 28.199219 C 17.136719 28.199219 17.0625 28.199219 16.984375 28.199219 C 16.867188 28.199219 16.867188 28.199219 16.75 28.199219 C 16.585938 28.199219 16.417969 28.199219 16.253906 28.199219 C 16.085938 28.199219 15.917969 28.199219 15.75 28.199219 C 15.503906 28.203125 15.261719 28.203125 15.019531 28.203125 C 14.945312 28.203125 14.871094 28.203125 14.792969 28.203125 C 13.761719 28.199219 13.761719 28.199219 13.5625 28 C 13.480469 27.988281 13.394531 27.984375 13.3125 27.976562 C 13.054688 27.949219 12.835938 27.890625 12.59375 27.800781 C 12.296875 27.703125 11.992188 27.636719 11.6875 27.5625 C 11.6875 27.519531 11.6875 27.480469 11.6875 27.4375 C 11.640625 27.441406 11.597656 27.441406 11.550781 27.445312 C 11.363281 27.4375 11.234375 27.390625 11.0625 27.3125 C 11.0625 27.269531 11.0625 27.230469 11.0625 27.1875 C 11.015625 27.191406 10.972656 27.191406 10.925781 27.195312 C 10.730469 27.1875 10.628906 27.144531 10.460938 27.050781 C 10.40625 27.023438 10.355469 26.996094 10.300781 26.964844 C 10.246094 26.933594 10.191406 26.90625 10.136719 26.875 C 10.082031 26.84375 10.027344 26.816406 9.96875 26.785156 C 9.832031 26.710938 9.699219 26.636719 9.5625 26.5625 C 9.5625 26.519531 9.5625 26.480469 9.5625 26.4375 C 9.480469 26.4375 9.398438 26.4375 9.3125 26.4375 C 9.3125 26.394531 9.3125 26.355469 9.3125 26.3125 C 9.273438 26.304688 9.234375 26.292969 9.195312 26.285156 C 9.0625 26.25 9.0625 26.25 8.9375 26.1875 C 8.9375 26.144531 8.9375 26.105469 8.9375 26.0625 C 8.898438 26.054688 8.859375 26.042969 8.820312 26.035156 C 8.6875 26 8.6875 26 8.5625 25.9375 C 8.5625 25.894531 8.5625 25.855469 8.5625 25.8125 C 8.4375 25.769531 8.316406 25.730469 8.1875 25.6875 C 8.1875 25.644531 8.1875 25.605469 8.1875 25.5625 C 8.144531 25.5625 8.105469 25.5625 8.0625 25.5625 C 8.0625 25.519531 8.0625 25.480469 8.0625 25.4375 C 8.019531 25.4375 7.980469 25.4375 7.9375 25.4375 C 7.9375 25.394531 7.9375 25.355469 7.9375 25.3125 C 7.898438 25.304688 7.859375 25.292969 7.820312 25.285156 C 7.6875 25.25 7.6875 25.25 7.5625 25.1875 C 7.5625 25.144531 7.5625 25.105469 7.5625 25.0625 C 7.519531 25.0625 7.480469 25.0625 7.4375 25.0625 C 7.4375 25.019531 7.4375 24.980469 7.4375 24.9375 C 7.394531 24.9375 7.355469 24.9375 7.3125 24.9375 C 7.3125 24.894531 7.3125 24.855469 7.3125 24.8125 C 7.269531 24.8125 7.230469 24.8125 7.1875 24.8125 C 7.1875 24.769531 7.1875 24.730469 7.1875 24.6875 C 7.144531 24.6875 7.105469 24.6875 7.0625 24.6875 C 7.0625 24.644531 7.0625 24.605469 7.0625 24.5625 C 7.019531 24.5625 6.980469 24.5625 6.9375 24.5625 C 6.9375 24.519531 6.9375 24.480469 6.9375 24.4375 C 6.894531 24.4375 6.855469 24.4375 6.8125 24.4375 C 6.8125 24.394531 6.8125 24.355469 6.8125 24.3125 C 6.769531 24.3125 6.730469 24.3125 6.6875 24.3125 C 6.6875 24.269531 6.6875 24.230469 6.6875 24.1875 C 6.644531 24.1875 6.605469 24.1875 6.5625 24.1875 C 6.5625 24.144531 6.5625 24.105469 6.5625 24.0625 C 6.519531 24.0625 6.480469 24.0625 6.4375 24.0625 C 6.4375 24.019531 6.4375 23.980469 6.4375 23.9375 C 6.394531 23.9375 6.355469 23.9375 6.3125 23.9375 C 6.3125 23.894531 6.3125 23.855469 6.3125 23.8125 C 6.269531 23.8125 6.230469 23.8125 6.1875 23.8125 C 6.1875 23.769531 6.1875 23.730469 6.1875 23.6875 C 6.144531 23.6875 6.105469 23.6875 6.0625 23.6875 C 5.9375 23.5 5.9375 23.5 5.9375 23.3125 C 5.894531 23.3125 5.855469 23.3125 5.8125 23.3125 C 5.8125 23.269531 5.8125 23.230469 5.8125 23.1875 C 5.769531 23.1875 5.730469 23.1875 5.6875 23.1875 C 5.6875 23.144531 5.6875 23.105469 5.6875 23.0625 C 5.644531 23.0625 5.605469 23.0625 5.5625 23.0625 C 5.519531 22.9375 5.480469 22.816406 5.4375 22.6875 C 5.394531 22.6875 5.355469 22.6875 5.3125 22.6875 C 5.1875 22.5 5.1875 22.5 5.1875 22.3125 C 5.144531 22.3125 5.105469 22.3125 5.0625 22.3125 C 5.019531 22.1875 4.980469 22.066406 4.9375 21.9375 C 4.894531 21.9375 4.855469 21.9375 4.8125 21.9375 C 4.8125 21.855469 4.8125 21.773438 4.8125 21.6875 C 4.769531 21.6875 4.730469 21.6875 4.6875 21.6875 C 4.4375 21.273438 4.4375 21.273438 4.4375 21.0625 C 4.394531 21.0625 4.355469 21.0625 4.3125 21.0625 C 4.285156 20.988281 4.257812 20.914062 4.230469 20.835938 C 4.167969 20.667969 4.101562 20.519531 4.019531 20.359375 C 3.9375 20.1875 3.9375 20.1875 3.9375 19.9375 C 3.894531 19.9375 3.855469 19.9375 3.8125 19.9375 C 3.800781 19.898438 3.789062 19.855469 3.777344 19.816406 C 3.753906 19.734375 3.753906 19.734375 3.730469 19.652344 C 3.714844 19.597656 3.699219 19.546875 3.683594 19.492188 C 3.625 19.304688 3.625 19.304688 3.53125 19.101562 C 3.3125 18.574219 3.183594 18.007812 3.125 17.4375 C 3.105469 17.417969 3.082031 17.394531 3.0625 17.375 C 3.042969 17.199219 3.03125 17.019531 3.019531 16.84375 C 3.015625 16.691406 3.015625 16.691406 2.9375 16.625 C 2.933594 16.472656 2.929688 16.320312 2.929688 16.167969 C 2.929688 16.128906 2.929688 16.085938 2.929688 16.046875 C 2.933594 15.894531 2.933594 15.742188 2.933594 15.589844 C 2.933594 15.25 2.9375 14.910156 2.9375 14.5625 C 3.617188 14.542969 4.296875 14.519531 5 14.5 C 5.03125 14.40625 5.03125 14.40625 5.0625 14.3125 C 5.105469 14.3125 5.144531 14.3125 5.1875 14.3125 C 5.1875 14.269531 5.1875 14.230469 5.1875 14.1875 C 5.890625 14.1875 6.589844 14.1875 7.3125 14.1875 C 7.3125 14.230469 7.3125 14.269531 7.3125 14.3125 C 7.355469 14.3125 7.394531 14.3125 7.4375 14.3125 C 7.4375 14.355469 7.4375 14.394531 7.4375 14.4375 C 7.480469 14.4375 7.519531 14.4375 7.5625 14.4375 C 7.570312 14.726562 7.574219 15.011719 7.578125 15.300781 C 7.582031 15.398438 7.582031 15.496094 7.585938 15.59375 C 7.589844 15.734375 7.589844 15.878906 7.59375 16.019531 C 7.59375 16.0625 7.597656 16.105469 7.597656 16.148438 C 7.597656 16.382812 7.566406 16.492188 7.429688 16.683594 C 7.210938 16.839844 7.09375 16.847656 6.824219 16.84375 C 6.742188 16.84375 6.660156 16.839844 6.578125 16.839844 C 6.492188 16.835938 6.410156 16.835938 6.324219 16.832031 C 6.238281 16.832031 6.152344 16.828125 6.066406 16.828125 C 5.855469 16.824219 5.648438 16.820312 5.4375 16.8125 C 5.4375 16.894531 5.4375 16.976562 5.4375 17.0625 C 5.664062 17.132812 5.875 17.132812 6.113281 17.132812 C 6.152344 17.132812 6.195312 17.132812 6.238281 17.132812 C 6.320312 17.132812 6.40625 17.132812 6.492188 17.132812 C 6.625 17.132812 6.753906 17.132812 6.886719 17.132812 C 6.96875 17.132812 7.054688 17.132812 7.136719 17.132812 C 7.210938 17.132812 7.289062 17.132812 7.367188 17.132812 C 7.574219 17.132812 7.574219 17.132812 7.8125 17.0625 C 7.8125 16.238281 7.8125 15.414062 7.8125 14.5625 C 8.101562 14.5625 8.390625 14.5625 8.6875 14.5625 C 8.6875 14.398438 8.6875 14.234375 8.6875 14.0625 C 8.730469 14.0625 8.769531 14.0625 8.8125 14.0625 C 8.8125 14.019531 8.8125 13.980469 8.8125 13.9375 C 9.308594 13.9375 9.800781 13.9375 10.3125 13.9375 C 10.3125 13.980469 10.3125 14.019531 10.3125 14.0625 C 10.355469 14.0625 10.394531 14.0625 10.4375 14.0625 C 10.4375 14.558594 10.4375 15.050781 10.4375 15.5625 C 10.394531 15.5625 10.355469 15.5625 10.3125 15.5625 C 10.3125 15.605469 10.3125 15.644531 10.3125 15.6875 C 9.941406 15.6875 9.570312 15.6875 9.1875 15.6875 C 9.1875 15.730469 9.1875 15.769531 9.1875 15.8125 C 9.960938 15.78125 9.960938 15.78125 10.75 15.75 C 10.769531 15.6875 10.792969 15.625 10.8125 15.5625 C 10.9375 15.5625 11.058594 15.5625 11.1875 15.5625 C 11.191406 15.605469 11.195312 15.652344 11.199219 15.695312 C 11.203125 15.753906 11.210938 15.8125 11.214844 15.871094 C 11.21875 15.929688 11.226562 15.984375 11.230469 16.042969 C 11.234375 16.183594 11.234375 16.183594 11.3125 16.25 C 11.316406 16.355469 11.316406 16.457031 11.3125 16.5625 C 11.355469 16.5625 11.394531 16.5625 11.4375 16.5625 C 11.453125 16.605469 11.46875 16.648438 11.488281 16.691406 C 11.519531 16.777344 11.519531 16.777344 11.554688 16.863281 C 11.578125 16.917969 11.597656 16.976562 11.621094 17.03125 C 11.6875 17.199219 11.6875 17.199219 11.8125 17.375 C 11.8125 17.4375 11.8125 17.5 11.8125 17.5625 C 11.855469 17.5625 11.894531 17.5625 11.9375 17.5625 C 12.0625 17.75 12.0625 17.75 12.0625 17.9375 C 12.105469 17.9375 12.144531 17.9375 12.1875 17.9375 C 12.1875 17.980469 12.1875 18.019531 12.1875 18.0625 C 12.230469 18.0625 12.269531 18.0625 12.3125 18.0625 C 12.3125 18.105469 12.3125 18.144531 12.3125 18.1875 C 12.355469 18.1875 12.394531 18.1875 12.4375 18.1875 C 12.4375 18.230469 12.4375 18.269531 12.4375 18.3125 C 12.480469 18.3125 12.519531 18.3125 12.5625 18.3125 C 12.5625 18.355469 12.5625 18.394531 12.5625 18.4375 C 12.605469 18.4375 12.644531 18.4375 12.6875 18.4375 C 12.6875 18.480469 12.6875 18.519531 12.6875 18.5625 C 12.730469 18.5625 12.769531 18.5625 12.8125 18.5625 C 12.8125 18.605469 12.8125 18.644531 12.8125 18.6875 C 12.855469 18.6875 12.894531 18.6875 12.9375 18.6875 C 12.9375 18.730469 12.9375 18.769531 12.9375 18.8125 C 12.976562 18.820312 13.015625 18.832031 13.054688 18.839844 C 13.1875 18.875 13.1875 18.875 13.3125 18.9375 C 13.3125 18.980469 13.3125 19.019531 13.3125 19.0625 C 13.351562 19.070312 13.390625 19.082031 13.429688 19.089844 C 13.5625 19.125 13.5625 19.125 13.6875 19.1875 C 13.6875 19.230469 13.6875 19.269531 13.6875 19.3125 C 13.769531 19.3125 13.851562 19.3125 13.9375 19.3125 C 13.9375 19.355469 13.9375 19.394531 13.9375 19.4375 C 13.980469 19.433594 14.023438 19.429688 14.066406 19.425781 C 14.300781 19.441406 14.472656 19.53125 14.6875 19.625 C 14.832031 19.648438 14.980469 19.671875 15.125 19.6875 C 15.144531 19.707031 15.167969 19.730469 15.1875 19.75 C 15.296875 19.757812 15.410156 19.757812 15.519531 19.757812 C 15.585938 19.757812 15.652344 19.757812 15.722656 19.757812 C 15.792969 19.757812 15.863281 19.757812 15.9375 19.757812 C 16.007812 19.757812 16.078125 19.757812 16.152344 19.757812 C 16.21875 19.757812 16.285156 19.757812 16.355469 19.757812 C 16.417969 19.757812 16.480469 19.757812 16.542969 19.757812 C 16.683594 19.765625 16.683594 19.765625 16.75 19.6875 C 16.824219 19.679688 16.898438 19.671875 16.976562 19.664062 C 17.164062 19.644531 17.3125 19.605469 17.484375 19.527344 C 17.6875 19.4375 17.6875 19.4375 17.9375 19.4375 C 17.9375 19.394531 17.9375 19.355469 17.9375 19.3125 C 18.019531 19.3125 18.101562 19.3125 18.1875 19.3125 C 18.1875 19.269531 18.1875 19.230469 18.1875 19.1875 C 18.269531 19.1875 18.351562 19.1875 18.4375 19.1875 C 18.4375 19.144531 18.4375 19.105469 18.4375 19.0625 C 18.625 18.9375 18.625 18.9375 18.8125 18.9375 C 18.8125 18.894531 18.8125 18.855469 18.8125 18.8125 C 18.855469 18.8125 18.894531 18.8125 18.9375 18.8125 C 18.9375 18.769531 18.9375 18.730469 18.9375 18.6875 C 19.039062 18.605469 19.039062 18.605469 19.171875 18.515625 C 19.410156 18.34375 19.535156 18.183594 19.6875 17.9375 C 19.730469 17.9375 19.769531 17.9375 19.8125 17.9375 C 19.8125 17.894531 19.8125 17.855469 19.8125 17.8125 C 19.855469 17.8125 19.894531 17.8125 19.9375 17.8125 C 19.980469 17.6875 20.019531 17.566406 20.0625 17.4375 C 20.105469 17.4375 20.144531 17.4375 20.1875 17.4375 C 20.195312 17.402344 20.203125 17.367188 20.210938 17.328125 C 20.25 17.1875 20.296875 17.058594 20.347656 16.921875 C 20.371094 16.855469 20.371094 16.855469 20.398438 16.789062 C 20.410156 16.753906 20.425781 16.722656 20.4375 16.6875 C 20.480469 16.6875 20.519531 16.6875 20.5625 16.6875 C 20.558594 16.628906 20.558594 16.628906 20.550781 16.566406 C 20.5625 16.390625 20.589844 16.289062 20.652344 16.128906 C 20.769531 15.804688 20.78125 15.488281 20.792969 15.144531 C 20.8125 14.9375 20.8125 14.9375 20.9375 14.5625 C 22.257812 14.5625 23.578125 14.5625 24.9375 14.5625 C 24.9375 14.234375 24.9375 13.902344 24.9375 13.5625 C 24.980469 13.5625 25.019531 13.5625 25.0625 13.5625 C 25.0625 13.519531 25.0625 13.480469 25.0625 13.4375 C 25.105469 13.4375 25.144531 13.4375 25.1875 13.4375 C 25.1875 13.394531 25.1875 13.355469 25.1875 13.3125 Z M 25.1875 13.3125 "/>
<path style=" stroke:none;fill-rule:nonzero;fill:rgb(42.352942%,69.01961%,24.705882%);fill-opacity:1;" d="M 11.3125 2.0625 C 11.824219 2.058594 12.339844 2.050781 12.851562 2.050781 C 13.089844 2.046875 13.328125 2.046875 13.566406 2.042969 C 13.796875 2.039062 14.027344 2.039062 14.257812 2.039062 C 14.34375 2.039062 14.429688 2.039062 14.519531 2.035156 C 15.464844 2.023438 15.464844 2.023438 15.8125 2.3125 C 16.164062 2.707031 16.097656 3.210938 16.089844 3.710938 C 16.089844 3.804688 16.089844 3.898438 16.089844 3.992188 C 16.089844 4.1875 16.089844 4.386719 16.089844 4.582031 C 16.085938 4.832031 16.085938 5.082031 16.085938 5.335938 C 16.085938 5.527344 16.085938 5.722656 16.085938 5.914062 C 16.082031 6.007812 16.082031 6.101562 16.082031 6.191406 C 16.082031 6.324219 16.082031 6.453125 16.082031 6.582031 C 16.078125 6.691406 16.078125 6.691406 16.078125 6.804688 C 16.0625 7 16.019531 7.136719 15.9375 7.3125 C 15.894531 7.3125 15.855469 7.3125 15.8125 7.3125 C 15.8125 7.355469 15.8125 7.394531 15.8125 7.4375 C 15.769531 7.4375 15.730469 7.4375 15.6875 7.4375 C 15.6875 7.480469 15.6875 7.519531 15.6875 7.5625 C 15.464844 7.703125 15.28125 7.703125 15.019531 7.703125 C 14.957031 7.703125 14.957031 7.703125 14.894531 7.703125 C 14.757812 7.703125 14.621094 7.699219 14.484375 7.699219 C 14.386719 7.699219 14.292969 7.699219 14.199219 7.699219 C 13.949219 7.699219 13.699219 7.699219 13.449219 7.695312 C 13.195312 7.695312 12.941406 7.695312 12.6875 7.695312 C 12.1875 7.691406 11.6875 7.691406 11.1875 7.6875 C 11.1875 7.644531 11.1875 7.605469 11.1875 7.5625 C 11.105469 7.5625 11.023438 7.5625 10.9375 7.5625 C 10.9375 7.519531 10.9375 7.480469 10.9375 7.4375 C 10.894531 7.4375 10.855469 7.4375 10.8125 7.4375 C 10.515625 6.976562 10.527344 6.546875 10.535156 6.011719 C 10.535156 5.921875 10.535156 5.832031 10.535156 5.742188 C 10.535156 5.554688 10.535156 5.367188 10.535156 5.179688 C 10.539062 4.941406 10.539062 4.703125 10.539062 4.464844 C 10.539062 4.277344 10.539062 4.09375 10.539062 3.910156 C 10.542969 3.820312 10.542969 3.734375 10.542969 3.644531 C 10.542969 3.523438 10.542969 3.398438 10.542969 3.277344 C 10.542969 3.207031 10.546875 3.136719 10.546875 3.0625 C 10.5625 2.875 10.605469 2.734375 10.6875 2.5625 C 10.730469 2.5625 10.769531 2.5625 10.8125 2.5625 C 10.832031 2.480469 10.855469 2.398438 10.875 2.3125 C 10.9375 2.3125 11 2.3125 11.0625 2.3125 C 11.0625 2.269531 11.0625 2.230469 11.0625 2.1875 C 11.144531 2.1875 11.226562 2.1875 11.3125 2.1875 C 11.3125 2.144531 11.3125 2.105469 11.3125 2.0625 Z M 11.3125 2.0625 "/>
<path style=" stroke:none;fill-rule:nonzero;fill:rgb(56.862748%,73.333335%,21.960784%);fill-opacity:1;" d="M 5.617188 7.296875 C 5.679688 7.296875 5.679688 7.296875 5.746094 7.296875 C 5.886719 7.296875 6.027344 7.300781 6.167969 7.300781 C 6.265625 7.300781 6.363281 7.300781 6.460938 7.300781 C 6.71875 7.300781 6.976562 7.300781 7.234375 7.304688 C 7.496094 7.304688 7.757812 7.304688 8.019531 7.304688 C 8.535156 7.308594 9.046875 7.308594 9.5625 7.3125 C 9.5625 7.355469 9.5625 7.394531 9.5625 7.4375 C 9.644531 7.480469 9.726562 7.519531 9.8125 7.5625 C 9.8125 7.605469 9.8125 7.644531 9.8125 7.6875 C 9.855469 7.6875 9.894531 7.6875 9.9375 7.6875 C 10.089844 7.914062 10.078125 8.019531 10.082031 8.289062 C 10.082031 8.332031 10.082031 8.375 10.082031 8.417969 C 10.082031 8.558594 10.082031 8.695312 10.082031 8.835938 C 10.082031 8.933594 10.085938 9.027344 10.085938 9.125 C 10.085938 9.328125 10.085938 9.53125 10.085938 9.734375 C 10.085938 9.992188 10.085938 10.253906 10.089844 10.511719 C 10.089844 10.710938 10.089844 10.914062 10.089844 11.113281 C 10.089844 11.207031 10.089844 11.304688 10.09375 11.398438 C 10.101562 12.378906 10.101562 12.378906 9.8125 12.6875 C 9.355469 12.980469 8.863281 12.972656 8.335938 12.964844 C 8.214844 12.964844 8.214844 12.964844 8.09375 12.964844 C 7.925781 12.964844 7.757812 12.964844 7.589844 12.964844 C 7.375 12.960938 7.160156 12.960938 6.945312 12.960938 C 6.738281 12.960938 6.535156 12.960938 6.328125 12.957031 C 6.25 12.957031 6.175781 12.957031 6.097656 12.957031 C 5.726562 12.953125 5.410156 12.9375 5.0625 12.8125 C 5.0625 12.769531 5.0625 12.730469 5.0625 12.6875 C 5.019531 12.6875 4.980469 12.6875 4.9375 12.6875 C 4.9375 12.644531 4.9375 12.605469 4.9375 12.5625 C 4.894531 12.5625 4.855469 12.5625 4.8125 12.5625 C 4.667969 12.226562 4.554688 11.960938 4.550781 11.589844 C 4.550781 11.515625 4.550781 11.445312 4.550781 11.371094 C 4.546875 11.292969 4.546875 11.214844 4.546875 11.136719 C 4.546875 11.058594 4.546875 10.976562 4.546875 10.894531 C 4.546875 10.726562 4.542969 10.554688 4.542969 10.386719 C 4.542969 10.171875 4.542969 9.953125 4.539062 9.738281 C 4.535156 9.53125 4.535156 9.324219 4.535156 9.117188 C 4.535156 9.039062 4.535156 8.964844 4.53125 8.886719 C 4.535156 8.398438 4.613281 8.007812 4.8125 7.5625 C 4.855469 7.5625 4.894531 7.5625 4.9375 7.5625 C 4.9375 7.519531 4.9375 7.480469 4.9375 7.4375 C 5.164062 7.296875 5.351562 7.296875 5.617188 7.296875 Z M 5.617188 7.296875 "/>
<path style=" stroke:none;fill-rule:nonzero;fill:rgb(0%,60.000002%,27.450982%);fill-opacity:1;" d="M 23.4375 7.3125 C 23.90625 7.308594 24.375 7.308594 24.84375 7.304688 C 25 7.304688 25.160156 7.304688 25.320312 7.304688 C 25.550781 7.300781 25.777344 7.300781 26.007812 7.300781 C 26.113281 7.300781 26.113281 7.300781 26.222656 7.296875 C 26.289062 7.296875 26.355469 7.296875 26.425781 7.296875 C 26.484375 7.296875 26.542969 7.296875 26.601562 7.296875 C 26.75 7.3125 26.75 7.3125 26.9375 7.4375 C 26.9375 7.480469 26.9375 7.519531 26.9375 7.5625 C 26.980469 7.5625 27.019531 7.5625 27.0625 7.5625 C 27.0625 7.605469 27.0625 7.644531 27.0625 7.6875 C 27.105469 7.6875 27.144531 7.6875 27.1875 7.6875 C 27.261719 8.039062 27.257812 8.382812 27.257812 8.742188 C 27.257812 8.808594 27.257812 8.871094 27.257812 8.941406 C 27.257812 9.078125 27.257812 9.214844 27.257812 9.351562 C 27.257812 9.5625 27.257812 9.773438 27.257812 9.980469 C 27.257812 10.117188 27.257812 10.25 27.257812 10.382812 C 27.257812 10.445312 27.257812 10.507812 27.257812 10.570312 C 27.257812 10.867188 27.25 11.148438 27.1875 11.4375 C 27.144531 11.4375 27.105469 11.4375 27.0625 11.4375 C 27.0625 11.480469 27.0625 11.519531 27.0625 11.5625 C 27.019531 11.5625 26.980469 11.5625 26.9375 11.5625 C 26.9375 11.605469 26.9375 11.644531 26.9375 11.6875 C 26.71875 11.785156 26.546875 11.828125 26.308594 11.828125 C 26.214844 11.828125 26.214844 11.828125 26.121094 11.828125 C 26.054688 11.828125 25.988281 11.828125 25.921875 11.828125 C 25.855469 11.828125 25.785156 11.828125 25.714844 11.828125 C 25.570312 11.828125 25.425781 11.828125 25.285156 11.828125 C 25.0625 11.828125 24.84375 11.828125 24.625 11.828125 C 24.484375 11.828125 24.34375 11.828125 24.203125 11.828125 C 24.105469 11.828125 24.105469 11.828125 24.003906 11.828125 C 23.941406 11.828125 23.878906 11.828125 23.816406 11.828125 C 23.761719 11.828125 23.710938 11.828125 23.652344 11.828125 C 23.480469 11.808594 23.347656 11.757812 23.1875 11.6875 C 23.1875 11.644531 23.1875 11.605469 23.1875 11.5625 C 23.144531 11.5625 23.105469 11.5625 23.0625 11.5625 C 23.0625 11.480469 23.0625 11.398438 23.0625 11.3125 C 23.019531 11.3125 22.980469 11.3125 22.9375 11.3125 C 22.933594 10.820312 22.933594 10.324219 22.929688 9.832031 C 22.929688 9.664062 22.929688 9.496094 22.929688 9.328125 C 22.925781 9.085938 22.925781 8.84375 22.925781 8.601562 C 22.925781 8.527344 22.925781 8.453125 22.921875 8.375 C 22.921875 8.304688 22.921875 8.234375 22.921875 8.164062 C 22.921875 8.101562 22.921875 8.039062 22.921875 7.976562 C 22.9375 7.808594 22.976562 7.707031 23.0625 7.5625 C 23.105469 7.5625 23.144531 7.5625 23.1875 7.5625 C 23.1875 7.519531 23.1875 7.480469 23.1875 7.4375 C 23.269531 7.4375 23.351562 7.4375 23.4375 7.4375 C 23.4375 7.394531 23.4375 7.355469 23.4375 7.3125 Z M 23.4375 7.3125 "/>
<path style=" stroke:none;fill-rule:nonzero;fill:rgb(20.392157%,62.7451%,26.274511%);fill-opacity:1;" d="M 19.078125 2.550781 C 19.132812 2.550781 19.1875 2.546875 19.246094 2.546875 C 19.496094 2.542969 19.746094 2.542969 20 2.539062 C 20.132812 2.539062 20.265625 2.539062 20.398438 2.535156 C 20.589844 2.53125 20.78125 2.53125 20.972656 2.53125 C 21.03125 2.527344 21.089844 2.527344 21.148438 2.527344 C 21.488281 2.527344 21.714844 2.566406 21.980469 2.789062 C 22.253906 3.074219 22.207031 3.449219 22.203125 3.820312 C 22.203125 3.882812 22.203125 3.945312 22.203125 4.007812 C 22.203125 4.136719 22.203125 4.265625 22.203125 4.394531 C 22.203125 4.59375 22.203125 4.789062 22.203125 4.988281 C 22.203125 5.113281 22.203125 5.238281 22.203125 5.363281 C 22.203125 5.425781 22.203125 5.484375 22.203125 5.542969 C 22.203125 5.828125 22.199219 6.054688 22.0625 6.3125 C 22.019531 6.3125 21.980469 6.3125 21.9375 6.3125 C 21.9375 6.355469 21.9375 6.394531 21.9375 6.4375 C 21.894531 6.4375 21.855469 6.4375 21.8125 6.4375 C 21.8125 6.480469 21.8125 6.519531 21.8125 6.5625 C 20.738281 6.5625 19.667969 6.5625 18.5625 6.5625 C 18.5625 6.519531 18.5625 6.480469 18.5625 6.4375 C 18.519531 6.4375 18.480469 6.4375 18.4375 6.4375 C 18.4375 6.394531 18.4375 6.355469 18.4375 6.3125 C 18.394531 6.3125 18.355469 6.3125 18.3125 6.3125 C 18.175781 5.777344 18.167969 5.261719 18.167969 4.710938 C 18.167969 4.558594 18.167969 4.40625 18.164062 4.257812 C 18.164062 3.769531 18.164062 3.328125 18.375 2.875 C 18.601562 2.652344 18.765625 2.554688 19.078125 2.550781 Z M 19.078125 2.550781 "/>
<path style=" stroke:none;fill-rule:nonzero;fill:rgb(21.568628%,58.431375%,24.705882%);fill-opacity:1;" d="M 18.5625 7.8125 C 19.140625 7.8125 19.71875 7.8125 20.3125 7.8125 C 20.3125 7.855469 20.3125 7.894531 20.3125 7.9375 C 20.355469 7.9375 20.394531 7.9375 20.4375 7.9375 C 20.582031 8.152344 20.578125 8.238281 20.578125 8.492188 C 20.578125 8.601562 20.578125 8.601562 20.578125 8.710938 C 20.578125 8.785156 20.578125 8.859375 20.578125 8.9375 C 20.578125 9.050781 20.578125 9.050781 20.578125 9.164062 C 20.578125 9.238281 20.578125 9.308594 20.578125 9.382812 C 20.578125 9.449219 20.578125 9.515625 20.578125 9.582031 C 20.5625 9.75 20.5625 9.75 20.4375 9.9375 C 20.394531 9.9375 20.355469 9.9375 20.3125 9.9375 C 20.3125 9.980469 20.3125 10.019531 20.3125 10.0625 C 19.734375 10.0625 19.15625 10.0625 18.5625 10.0625 C 18.5625 10.019531 18.5625 9.980469 18.5625 9.9375 C 18.519531 9.9375 18.480469 9.9375 18.4375 9.9375 C 18.4375 9.894531 18.4375 9.855469 18.4375 9.8125 C 18.394531 9.8125 18.355469 9.8125 18.3125 9.8125 C 18.3125 9.234375 18.3125 8.65625 18.3125 8.0625 C 18.355469 8.0625 18.394531 8.0625 18.4375 8.0625 C 18.4375 8.019531 18.4375 7.980469 18.4375 7.9375 C 18.480469 7.9375 18.519531 7.9375 18.5625 7.9375 C 18.5625 7.894531 18.5625 7.855469 18.5625 7.8125 Z M 18.5625 7.8125 "/>
<path style=" stroke:none;fill-rule:nonzero;fill:rgb(36.078432%,61.176473%,23.529412%);fill-opacity:1;" d="M 13.664062 8.675781 C 13.746094 8.675781 13.828125 8.675781 13.910156 8.675781 C 13.996094 8.675781 14.082031 8.679688 14.167969 8.679688 C 14.253906 8.679688 14.339844 8.679688 14.425781 8.679688 C 14.640625 8.683594 14.851562 8.683594 15.0625 8.6875 C 15.0625 8.730469 15.0625 8.769531 15.0625 8.8125 C 15.105469 8.8125 15.144531 8.8125 15.1875 8.8125 C 15.234375 9.027344 15.257812 9.226562 15.257812 9.445312 C 15.257812 9.535156 15.257812 9.535156 15.257812 9.625 C 15.257812 9.6875 15.257812 9.75 15.257812 9.8125 C 15.257812 9.90625 15.257812 9.90625 15.257812 10 C 15.257812 10.058594 15.257812 10.117188 15.257812 10.179688 C 15.257812 10.234375 15.257812 10.289062 15.257812 10.34375 C 15.25 10.503906 15.222656 10.65625 15.1875 10.8125 C 15.144531 10.8125 15.105469 10.8125 15.0625 10.8125 C 15.0625 10.855469 15.0625 10.894531 15.0625 10.9375 C 14.808594 10.941406 14.554688 10.941406 14.296875 10.945312 C 14.210938 10.945312 14.125 10.945312 14.039062 10.945312 C 13.914062 10.949219 13.789062 10.949219 13.664062 10.949219 C 13.550781 10.949219 13.550781 10.949219 13.4375 10.953125 C 13.25 10.9375 13.25 10.9375 13.0625 10.8125 C 13.039062 10.617188 13.039062 10.617188 13.039062 10.367188 C 13.039062 10.324219 13.039062 10.28125 13.035156 10.234375 C 13.035156 10.140625 13.039062 10.046875 13.039062 9.957031 C 13.039062 9.8125 13.039062 9.671875 13.035156 9.527344 C 13.035156 9.4375 13.039062 9.347656 13.039062 9.257812 C 13.039062 9.175781 13.039062 9.09375 13.039062 9.007812 C 13.046875 8.945312 13.054688 8.878906 13.0625 8.8125 C 13.289062 8.660156 13.394531 8.671875 13.664062 8.675781 Z M 13.664062 8.675781 "/>
<path style=" stroke:none;fill-rule:nonzero;fill:rgb(55.686277%,64.705884%,18.82353%);fill-opacity:1;" d="M 3.539062 12.539062 C 3.605469 12.539062 3.671875 12.539062 3.742188 12.539062 C 3.8125 12.542969 3.882812 12.542969 3.953125 12.546875 C 4.023438 12.546875 4.09375 12.550781 4.167969 12.550781 C 4.339844 12.554688 4.515625 12.558594 4.6875 12.5625 C 4.6875 12.605469 4.6875 12.644531 4.6875 12.6875 C 4.730469 12.6875 4.769531 12.6875 4.8125 12.6875 C 4.8125 13.222656 4.8125 13.761719 4.8125 14.3125 C 4.769531 14.3125 4.730469 14.3125 4.6875 14.3125 C 4.6875 14.355469 4.6875 14.394531 4.6875 14.4375 C 4.417969 14.441406 4.152344 14.445312 3.882812 14.449219 C 3.769531 14.453125 3.769531 14.453125 3.652344 14.453125 C 3.542969 14.453125 3.542969 14.453125 3.429688 14.457031 C 3.328125 14.457031 3.328125 14.457031 3.226562 14.457031 C 3.171875 14.453125 3.117188 14.445312 3.0625 14.4375 C 2.871094 14.152344 2.914062 13.871094 2.914062 13.535156 C 2.914062 13.46875 2.910156 13.402344 2.910156 13.335938 C 2.910156 13.273438 2.910156 13.210938 2.910156 13.144531 C 2.90625 13.058594 2.90625 13.058594 2.90625 12.96875 C 2.976562 12.609375 3.203125 12.53125 3.539062 12.539062 Z M 3.539062 12.539062 "/>
<path style=" stroke:none;fill-rule:nonzero;fill:rgb(0.392157%,55.29412%,25.490198%);fill-opacity:1;" d="M 23.0625 12.1875 C 23.558594 12.1875 24.050781 12.1875 24.5625 12.1875 C 24.5625 12.230469 24.5625 12.269531 24.5625 12.3125 C 24.605469 12.3125 24.644531 12.3125 24.6875 12.3125 C 24.6875 12.847656 24.6875 13.386719 24.6875 13.9375 C 24.644531 13.9375 24.605469 13.9375 24.5625 13.9375 C 24.5625 13.980469 24.5625 14.019531 24.5625 14.0625 C 24.066406 14.0625 23.574219 14.0625 23.0625 14.0625 C 23.0625 14.019531 23.0625 13.980469 23.0625 13.9375 C 23.019531 13.9375 22.980469 13.9375 22.9375 13.9375 C 22.9375 13.402344 22.9375 12.863281 22.9375 12.3125 C 22.980469 12.3125 23.019531 12.3125 23.0625 12.3125 C 23.0625 12.269531 23.0625 12.230469 23.0625 12.1875 Z M 23.0625 12.1875 "/>
<path style=" stroke:none;fill-rule:nonzero;fill:rgb(39.607844%,59.607846%,21.960784%);fill-opacity:1;" d="M 11.421875 11.546875 C 11.480469 11.546875 11.535156 11.546875 11.597656 11.546875 C 11.6875 11.546875 11.6875 11.546875 11.777344 11.546875 C 11.867188 11.546875 11.867188 11.546875 11.957031 11.546875 C 12.015625 11.546875 12.074219 11.546875 12.132812 11.546875 C 12.183594 11.546875 12.238281 11.546875 12.292969 11.546875 C 12.449219 11.5625 12.550781 11.609375 12.6875 11.6875 C 12.691406 11.957031 12.695312 12.222656 12.699219 12.492188 C 12.699219 12.570312 12.703125 12.644531 12.703125 12.722656 C 12.703125 12.796875 12.707031 12.871094 12.707031 12.945312 C 12.707031 13.011719 12.707031 13.078125 12.707031 13.148438 C 12.703125 13.203125 12.695312 13.257812 12.6875 13.3125 C 12.476562 13.453125 12.410156 13.453125 12.167969 13.449219 C 12.070312 13.449219 12.070312 13.449219 11.972656 13.449219 C 11.90625 13.449219 11.839844 13.445312 11.769531 13.445312 C 11.703125 13.445312 11.632812 13.445312 11.5625 13.445312 C 11.398438 13.441406 11.230469 13.441406 11.0625 13.4375 C 11.0625 13.394531 11.0625 13.355469 11.0625 13.3125 C 11.019531 13.3125 10.980469 13.3125 10.9375 13.3125 C 10.933594 13.042969 10.929688 12.777344 10.925781 12.507812 C 10.925781 12.429688 10.921875 12.355469 10.921875 12.277344 C 10.921875 12.203125 10.917969 12.128906 10.917969 12.054688 C 10.917969 11.988281 10.917969 11.921875 10.917969 11.851562 C 10.921875 11.796875 10.929688 11.742188 10.9375 11.6875 C 11.136719 11.554688 11.191406 11.546875 11.421875 11.546875 Z M 11.421875 11.546875 "/>
<path style=" stroke:none;fill-rule:nonzero;fill:rgb(46.27451%,61.56863%,20.784314%);fill-opacity:1;" d="M 8.40625 4.167969 C 8.484375 4.167969 8.566406 4.164062 8.648438 4.164062 C 8.898438 4.191406 9.128906 4.253906 9.3125 4.4375 C 9.316406 4.546875 9.320312 4.660156 9.320312 4.773438 C 9.320312 4.839844 9.316406 4.90625 9.316406 4.976562 C 9.316406 5.046875 9.316406 5.117188 9.316406 5.191406 C 9.316406 5.261719 9.316406 5.332031 9.316406 5.40625 C 9.316406 5.585938 9.3125 5.761719 9.3125 5.9375 C 9.269531 5.9375 9.230469 5.9375 9.1875 5.9375 C 9.1875 5.980469 9.1875 6.019531 9.1875 6.0625 C 8.691406 6.0625 8.199219 6.0625 7.6875 6.0625 C 7.6875 6.019531 7.6875 5.980469 7.6875 5.9375 C 7.644531 5.9375 7.605469 5.9375 7.5625 5.9375 C 7.5625 5.402344 7.5625 4.863281 7.5625 4.3125 C 7.886719 4.203125 8.074219 4.167969 8.40625 4.167969 Z M 8.40625 4.167969 "/>
<path style=" stroke:none;fill-rule:nonzero;fill:rgb(27.058825%,57.647061%,23.921569%);fill-opacity:1;" d="M 16.5625 1.4375 C 17.097656 1.4375 17.636719 1.4375 18.1875 1.4375 C 18.1875 1.71875 18.191406 1.996094 18.191406 2.277344 C 18.191406 2.355469 18.191406 2.4375 18.191406 2.519531 C 18.191406 2.632812 18.191406 2.632812 18.195312 2.75 C 18.195312 2.855469 18.195312 2.855469 18.195312 2.964844 C 18.1875 3.125 18.1875 3.125 18.125 3.1875 C 18.007812 3.191406 17.894531 3.195312 17.777344 3.195312 C 17.707031 3.195312 17.636719 3.191406 17.5625 3.191406 C 17.488281 3.191406 17.417969 3.191406 17.339844 3.191406 C 17.265625 3.191406 17.191406 3.191406 17.113281 3.191406 C 16.929688 3.191406 16.746094 3.1875 16.5625 3.1875 C 16.5625 3.144531 16.5625 3.105469 16.5625 3.0625 C 16.519531 3.0625 16.480469 3.0625 16.4375 3.0625 C 16.4375 2.566406 16.4375 2.074219 16.4375 1.5625 C 16.480469 1.5625 16.519531 1.5625 16.5625 1.5625 C 16.5625 1.519531 16.5625 1.480469 16.5625 1.4375 Z M 16.5625 1.4375 "/>
<path style=" stroke:none;fill-rule:nonzero;fill:rgb(15.686275%,54.901963%,24.313726%);fill-opacity:1;" d="M 20.707031 10.550781 C 20.757812 10.550781 20.808594 10.550781 20.859375 10.550781 C 20.910156 10.550781 20.960938 10.554688 21.015625 10.554688 C 21.066406 10.554688 21.121094 10.554688 21.175781 10.554688 C 21.304688 10.558594 21.433594 10.558594 21.5625 10.5625 C 21.5625 10.605469 21.5625 10.644531 21.5625 10.6875 C 21.644531 10.707031 21.726562 10.730469 21.8125 10.75 C 21.8125 11.222656 21.8125 11.699219 21.8125 12.1875 C 21.769531 12.1875 21.730469 12.1875 21.6875 12.1875 C 21.6875 12.230469 21.6875 12.269531 21.6875 12.3125 C 21.234375 12.3125 20.78125 12.3125 20.3125 12.3125 C 20.3125 12.269531 20.3125 12.230469 20.3125 12.1875 C 20.269531 12.1875 20.230469 12.1875 20.1875 12.1875 C 20.1875 11.691406 20.1875 11.199219 20.1875 10.6875 C 20.414062 10.574219 20.476562 10.546875 20.707031 10.550781 Z M 20.707031 10.550781 "/>
<path style=" stroke:none;fill-rule:nonzero;fill:rgb(11.764706%,52.549022%,23.529412%);fill-opacity:1;" d="M 21.875 7.421875 C 21.96875 7.421875 21.96875 7.421875 22.066406 7.421875 C 22.25 7.4375 22.25 7.4375 22.5625 7.5625 C 22.5625 8.015625 22.5625 8.46875 22.5625 8.9375 C 22.148438 8.9375 21.738281 8.9375 21.3125 8.9375 C 21.3125 8.894531 21.3125 8.855469 21.3125 8.8125 C 21.269531 8.8125 21.230469 8.8125 21.1875 8.8125 C 21.1875 8.398438 21.1875 7.988281 21.1875 7.5625 C 21.464844 7.453125 21.589844 7.421875 21.875 7.421875 Z M 21.875 7.421875 "/>
<path style=" stroke:none;fill-rule:nonzero;fill:rgb(0.392157%,51.372552%,23.921569%);fill-opacity:1;" d="M 23.1875 4.3125 C 23.558594 4.3125 23.929688 4.3125 24.3125 4.3125 C 24.3125 4.355469 24.3125 4.394531 24.3125 4.4375 C 24.355469 4.4375 24.394531 4.4375 24.4375 4.4375 C 24.4375 4.851562 24.4375 5.261719 24.4375 5.6875 C 23.867188 5.757812 23.867188 5.757812 23.609375 5.757812 C 23.535156 5.757812 23.535156 5.757812 23.457031 5.757812 C 23.3125 5.75 23.3125 5.75 23.0625 5.6875 C 23.0625 5.273438 23.0625 4.863281 23.0625 4.4375 C 23.105469 4.4375 23.144531 4.4375 23.1875 4.4375 C 23.1875 4.394531 23.1875 4.355469 23.1875 4.3125 Z M 23.1875 4.3125 "/>
<path style=" stroke:none;fill-rule:nonzero;fill:rgb(0%,48.627451%,23.921569%);fill-opacity:1;" d="M 27.5625 11.9375 C 27.757812 11.9375 27.957031 11.933594 28.152344 11.933594 C 28.207031 11.933594 28.265625 11.933594 28.324219 11.933594 C 28.375 11.933594 28.429688 11.929688 28.484375 11.929688 C 28.558594 11.929688 28.558594 11.929688 28.632812 11.929688 C 28.75 11.9375 28.75 11.9375 28.8125 12 C 28.828125 12.195312 28.824219 12.394531 28.824219 12.589844 C 28.824219 12.644531 28.824219 12.699219 28.828125 12.757812 C 28.828125 12.835938 28.828125 12.835938 28.828125 12.917969 C 28.828125 12.964844 28.828125 13.015625 28.828125 13.066406 C 28.8125 13.1875 28.8125 13.1875 28.6875 13.3125 C 28.507812 13.324219 28.332031 13.328125 28.152344 13.324219 C 28.101562 13.324219 28.054688 13.324219 28.003906 13.324219 C 27.632812 13.320312 27.632812 13.320312 27.5625 13.25 C 27.558594 13.152344 27.554688 13.054688 27.554688 12.957031 C 27.554688 12.898438 27.558594 12.839844 27.558594 12.777344 C 27.558594 12.714844 27.558594 12.652344 27.558594 12.589844 C 27.558594 12.527344 27.558594 12.464844 27.558594 12.402344 C 27.558594 12.246094 27.5625 12.09375 27.5625 11.9375 Z M 27.5625 11.9375 "/>
<path style=" stroke:none;fill-rule:nonzero;fill:rgb(24.313726%,52.549022%,22.352941%);fill-opacity:1;" d="M 16.8125 6.1875 C 17.101562 6.1875 17.390625 6.1875 17.6875 6.1875 C 17.6875 6.230469 17.6875 6.269531 17.6875 6.3125 C 17.730469 6.3125 17.769531 6.3125 17.8125 6.3125 C 17.8125 6.683594 17.8125 7.054688 17.8125 7.4375 C 17.441406 7.4375 17.070312 7.4375 16.6875 7.4375 C 16.6875 7.066406 16.6875 6.695312 16.6875 6.3125 C 16.730469 6.3125 16.769531 6.3125 16.8125 6.3125 C 16.8125 6.269531 16.8125 6.230469 16.8125 6.1875 Z M 16.8125 6.1875 "/>
<path style=" stroke:none;fill-rule:nonzero;fill:rgb(34.901962%,52.549022%,20%);fill-opacity:1;" d="M 11.0625 9.1875 C 11.351562 9.1875 11.640625 9.1875 11.9375 9.1875 C 12.007812 9.535156 12.050781 9.84375 11.9375 10.1875 C 11.785156 10.265625 11.679688 10.257812 11.507812 10.257812 C 11.453125 10.257812 11.398438 10.257812 11.34375 10.257812 C 11.1875 10.25 11.1875 10.25 10.9375 10.1875 C 10.9375 9.898438 10.9375 9.609375 10.9375 9.3125 C 10.980469 9.3125 11.019531 9.3125 11.0625 9.3125 C 11.0625 9.269531 11.0625 9.230469 11.0625 9.1875 Z M 11.0625 9.1875 "/>
<path style=" stroke:none;fill-rule:nonzero;fill:rgb(0%,41.176471%,20.784314%);fill-opacity:1;" d="M 30.4375 14.4375 C 30.5625 14.4375 30.683594 14.4375 30.8125 14.4375 C 30.8125 14.996094 30.8125 15.550781 30.8125 16.125 C 30.710938 16.144531 30.605469 16.167969 30.5 16.1875 C 30.4375 16.125 30.4375 16.125 30.429688 15.964844 C 30.429688 15.894531 30.429688 15.820312 30.429688 15.75 C 30.429688 15.671875 30.433594 15.597656 30.433594 15.519531 C 30.433594 15.441406 30.433594 15.359375 30.433594 15.277344 C 30.433594 15.195312 30.433594 15.117188 30.433594 15.035156 C 30.433594 14.835938 30.4375 14.636719 30.4375 14.4375 Z M 30.4375 14.4375 "/>
<path style=" stroke:none;fill-rule:nonzero;fill:rgb(49.803922%,62.352943%,20%);fill-opacity:1;" d="M 7.0625 7.75 C 7.082031 7.8125 7.105469 7.875 7.125 7.9375 C 6.609375 7.9375 6.09375 7.9375 5.5625 7.9375 C 5.5625 7.894531 5.5625 7.855469 5.5625 7.8125 C 5.980469 7.554688 6.597656 7.664062 7.0625 7.75 Z M 7.0625 7.75 "/>
<path style=" stroke:none;fill-rule:nonzero;fill:rgb(50.980395%,62.352943%,19.607843%);fill-opacity:1;" d="M 5.972656 14.558594 C 6.046875 14.558594 6.046875 14.558594 6.125 14.5625 C 6.144531 14.625 6.167969 14.6875 6.1875 14.75 C 6.023438 14.792969 5.859375 14.832031 5.6875 14.875 C 5.765625 14.5625 5.765625 14.5625 5.972656 14.558594 Z M 5.972656 14.558594 "/>
</g>
</svg>
